<svg width="18" height="16" viewBox="0 0 18 16" fill="none" xmlns="http://www.w3.org/2000/svg">
<path d="M16.8301 11.1699H5.19922L5.7832 9.98047L15.4863 9.96289C15.8145 9.96289 16.0957 9.72852 16.1543 9.4043L17.498 1.88281C17.5332 1.68555 17.4805 1.48242 17.3516 1.32812C17.2879 1.25219 17.2084 1.19102 17.1187 1.14886C17.029 1.1067 16.9312 1.08457 16.832 1.08398L4.48828 1.04297L4.38281 0.546875C4.31641 0.230469 4.03125 0 3.70703 0H0.689453C0.506599 0 0.331234 0.0726385 0.201936 0.201936C0.0726386 0.331234 0 0.506599 0 0.689453C0 0.872308 0.0726386 1.04767 0.201936 1.17697C0.331234 1.30627 0.506599 1.37891 0.689453 1.37891H3.14844L3.60938 3.57031L4.74414 9.06445L3.2832 11.4492C3.20733 11.5516 3.16164 11.6732 3.15128 11.8002C3.14093 11.9272 3.16633 12.0546 3.22461 12.168C3.3418 12.4004 3.57812 12.5469 3.83984 12.5469H5.06641C4.80492 12.8942 4.66368 13.3172 4.66406 13.752C4.66406 14.8574 5.5625 15.7559 6.66797 15.7559C7.77344 15.7559 8.67188 14.8574 8.67188 13.752C8.67188 13.3164 8.52734 12.8926 8.26953 12.5469H11.416C11.1545 12.8942 11.0133 13.3172 11.0137 13.752C11.0137 14.8574 11.9121 15.7559 13.0176 15.7559C14.123 15.7559 15.0215 14.8574 15.0215 13.752C15.0215 13.3164 14.877 12.8926 14.6191 12.5469H16.832C17.2109 12.5469 17.5215 12.2383 17.5215 11.8574C17.5203 11.6748 17.447 11.5 17.3175 11.3712C17.188 11.2424 17.0127 11.17 16.8301 11.1699ZM4.77539 2.40234L16.0215 2.43945L14.9199 8.60742L6.08594 8.62305L4.77539 2.40234ZM6.66797 14.3691C6.32812 14.3691 6.05078 14.0918 6.05078 13.752C6.05078 13.4121 6.32812 13.1348 6.66797 13.1348C7.00781 13.1348 7.28516 13.4121 7.28516 13.752C7.28516 13.9156 7.22013 14.0726 7.10439 14.1884C6.98864 14.3041 6.83166 14.3691 6.66797 14.3691ZM13.0176 14.3691C12.6777 14.3691 12.4004 14.0918 12.4004 13.752C12.4004 13.4121 12.6777 13.1348 13.0176 13.1348C13.3574 13.1348 13.6348 13.4121 13.6348 13.752C13.6348 13.9156 13.5697 14.0726 13.454 14.1884C13.3383 14.3041 13.1813 14.3691 13.0176 14.3691Z" fill="#FFCF5C"/>
</svg>
