<svg width="29" height="29" viewBox="0 0 29 29" fill="none" xmlns="http://www.w3.org/2000/svg">
<path d="M13.0994 1.844C13.5261 0.718667 15.1408 0.718667 15.5688 1.844L18.3288 9.48933C18.425 9.73838 18.5946 9.95238 18.815 10.1031C19.0355 10.2537 19.2964 10.334 19.5634 10.3333H26.3461C27.5994 10.3333 28.1461 11.8933 27.1608 12.6573L22.3341 17C22.1179 17.1662 21.9599 17.3966 21.8827 17.6582C21.8056 17.9198 21.8133 18.1991 21.9048 18.456L23.6674 25.9267C24.0968 27.1267 22.7074 28.1573 21.6568 27.4187L15.1008 23.2587C14.8762 23.1009 14.6085 23.0162 14.3341 23.0162C14.0597 23.0162 13.7919 23.1009 13.5674 23.2587L7.01142 27.4187C5.96209 28.1573 4.57142 27.1253 5.00075 25.9267L6.76342 18.456C6.85486 18.1991 6.86256 17.9198 6.78543 17.6582C6.7083 17.3966 6.5503 17.1662 6.33409 17L1.50742 12.6573C0.520753 11.8933 1.07009 10.3333 2.32075 10.3333H9.10342C9.37048 10.3342 9.63151 10.254 9.85198 10.1033C10.0724 9.95259 10.242 9.73849 10.3381 9.48933L13.0981 1.844H13.0994Z" fill="#FF2400" stroke="#FF2400" stroke-width="1.66667" stroke-linecap="round" stroke-linejoin="round"/>
</svg>
