<svg width="50" height="50" viewBox="0 0 50 50" fill="none" xmlns="http://www.w3.org/2000/svg">
<path fill-rule="evenodd" clip-rule="evenodd" d="M24.0417 46.5646L24.1875 46.6479L24.2458 46.6812C24.4772 46.8063 24.736 46.8718 24.999 46.8718C25.2619 46.8718 25.5208 46.8063 25.7521 46.6812L25.8104 46.65L25.9583 46.5646C26.7732 46.0814 27.5682 45.5657 28.3417 45.0187C30.3439 43.6052 32.2147 42.014 33.9312 40.2646C37.9813 36.1187 42.1875 29.8896 42.1875 21.875C42.1875 17.3166 40.3767 12.9449 37.1534 9.7216C33.9301 6.49832 29.5584 4.6875 25 4.6875C20.4416 4.6875 16.0699 6.49832 12.8466 9.7216C9.62332 12.9449 7.8125 17.3166 7.8125 21.875C7.8125 29.8875 12.0208 36.1187 16.0687 40.2646C17.7847 42.0139 19.6547 43.6051 21.6562 45.0187C22.4304 45.5658 23.2261 46.0815 24.0417 46.5646ZM25 28.125C26.6576 28.125 28.2473 27.4665 29.4194 26.2944C30.5915 25.1223 31.25 23.5326 31.25 21.875C31.25 20.2174 30.5915 18.6277 29.4194 17.4556C28.2473 16.2835 26.6576 15.625 25 15.625C23.3424 15.625 21.7527 16.2835 20.5806 17.4556C19.4085 18.6277 18.75 20.2174 18.75 21.875C18.75 23.5326 19.4085 25.1223 20.5806 26.2944C21.7527 27.4665 23.3424 28.125 25 28.125Z" fill="#FFB03A"/>
</svg>
