<svg width="50" height="57" viewBox="0 0 50 57" fill="none" xmlns="http://www.w3.org/2000/svg">
<g filter="url(#filter0_dd_888_79)">
<path d="M21.875 39.0625C21.4606 39.0625 21.0632 39.2271 20.7701 39.5201C20.4771 39.8132 20.3125 40.2106 20.3125 40.625C20.3125 41.0394 20.4771 41.4368 20.7701 41.7299C21.0632 42.0229 21.4606 42.1875 21.875 42.1875H28.125C28.5394 42.1875 28.9368 42.0229 29.2299 41.7299C29.5229 41.4368 29.6875 41.0394 29.6875 40.625C29.6875 40.2106 29.5229 39.8132 29.2299 39.5201C28.9368 39.2271 28.5394 39.0625 28.125 39.0625H21.875Z" fill="#FFB03A"/>
<path fill-rule="evenodd" clip-rule="evenodd" d="M17.9687 1.5625C16.1039 1.5625 14.3155 2.30329 12.9969 3.62191C11.6783 4.94052 10.9375 6.72895 10.9375 8.59375V41.4062C10.9375 43.2711 11.6783 45.0595 12.9969 46.3781C14.3155 47.6967 16.1039 48.4375 17.9687 48.4375H32.0312C33.8961 48.4375 35.6845 47.6967 37.0031 46.3781C38.3217 45.0595 39.0625 43.2711 39.0625 41.4062V8.59375C39.0625 6.72895 38.3217 4.94052 37.0031 3.62191C35.6845 2.30329 33.8961 1.5625 32.0312 1.5625H17.9687ZM15.625 8.59375C15.625 7.3 16.675 6.25 17.9687 6.25H20.3125V7.03125C20.3125 8.325 21.3625 9.375 22.6562 9.375H27.3438C28.6375 9.375 29.6875 8.325 29.6875 7.03125V6.25H32.0312C33.325 6.25 34.375 7.3 34.375 8.59375V41.4062C34.375 42.7 33.325 43.75 32.0312 43.75H17.9687C17.3471 43.75 16.751 43.5031 16.3115 43.0635C15.8719 42.624 15.625 42.0279 15.625 41.4062V8.59375Z" fill="#FFB03A"/>
</g>
<defs>
<filter id="filter0_dd_888_79" x="-4" y="0" width="58" height="58" filterUnits="userSpaceOnUse" color-interpolation-filters="sRGB">
<feFlood flood-opacity="0" result="BackgroundImageFix"/>
<feColorMatrix in="SourceAlpha" type="matrix" values="0 0 0 0 0 0 0 0 0 0 0 0 0 0 0 0 0 0 127 0" result="hardAlpha"/>
<feOffset dy="4"/>
<feGaussianBlur stdDeviation="2"/>
<feComposite in2="hardAlpha" operator="out"/>
<feColorMatrix type="matrix" values="0 0 0 0 0 0 0 0 0 0 0 0 0 0 0 0 0 0 0.25 0"/>
<feBlend mode="normal" in2="BackgroundImageFix" result="effect1_dropShadow_888_79"/>
<feColorMatrix in="SourceAlpha" type="matrix" values="0 0 0 0 0 0 0 0 0 0 0 0 0 0 0 0 0 0 127 0" result="hardAlpha"/>
<feOffset dy="4"/>
<feGaussianBlur stdDeviation="2"/>
<feComposite in2="hardAlpha" operator="out"/>
<feColorMatrix type="matrix" values="0 0 0 0 0 0 0 0 0 0 0 0 0 0 0 0 0 0 0.25 0"/>
<feBlend mode="normal" in2="effect1_dropShadow_888_79" result="effect2_dropShadow_888_79"/>
<feBlend mode="normal" in="SourceGraphic" in2="effect2_dropShadow_888_79" result="shape"/>
</filter>
</defs>
</svg>
