<svg width="30" height="30" viewBox="0 0 30 30" fill="none" xmlns="http://www.w3.org/2000/svg">
<path d="M20.8333 18.8333H19.5167L19.05 18.3833C20.6833 16.4833 21.6667 14.0167 21.6667 11.3333C21.6667 5.35 16.8167 0.5 10.8333 0.5C4.85 0.5 0 5.35 0 11.3333C0 17.3167 4.85 22.1667 10.8333 22.1667C13.5167 22.1667 15.9833 21.1833 17.8833 19.55L18.3333 20.0167V21.3333L26.6667 29.65L29.15 27.1667L20.8333 18.8333ZM10.8333 18.8333C6.68333 18.8333 3.33333 15.4833 3.33333 11.3333C3.33333 7.18333 6.68333 3.83333 10.8333 3.83333C14.9833 3.83333 18.3333 7.18333 18.3333 11.3333C18.3333 15.4833 14.9833 18.8333 10.8333 18.8333Z" fill="white"/>
</svg>
